<svg width="38" height="33" viewBox="0 0 38 33" fill="none" xmlns="http://www.w3.org/2000/svg">
<path d="M36.5394 6.53571C35.5745 5.57098 34.4106 5.08848 33.0469 5.08848H28.7245L27.7406 2.46436C27.496 1.83411 27.0492 1.29052 26.3993 0.83363C25.7495 0.376948 25.0839 0.148438 24.402 0.148438H14.5221C13.8403 0.148438 13.1745 0.376948 12.5248 0.83363C11.8751 1.29052 11.4282 1.83411 11.1838 2.46436L10.1997 5.08848H5.87733C4.51351 5.08848 3.34953 5.57098 2.3846 6.53571C1.41987 7.50051 0.9375 8.66462 0.9375 10.0283V27.3178C0.9375 28.6816 1.41987 29.8459 2.3846 30.8104C3.34953 31.7753 4.51357 32.2578 5.87733 32.2578H33.0464C34.4101 32.2578 35.5739 31.7753 36.5389 30.8104C37.5036 29.8459 37.9861 28.6816 37.9861 27.3178V10.0283C37.9864 8.66462 37.5039 7.50051 36.5394 6.53571ZM25.5692 24.7806C23.8775 26.4723 21.842 27.3183 19.4619 27.3183C17.0818 27.3183 15.0464 26.4723 13.3546 24.7806C11.6629 23.0892 10.8172 21.0531 10.8172 18.6736C10.8172 16.2933 11.6632 14.2579 13.3546 12.5662C15.0462 10.8744 17.0819 10.0287 19.4619 10.0287C21.8419 10.0287 23.8775 10.8746 25.5692 12.5662C27.2608 14.2577 28.1067 16.2933 28.1067 18.6736C28.1067 21.0531 27.2609 23.0889 25.5692 24.7806Z" fill="black"/>
<path d="M19.4622 13.1206C17.9313 13.1206 16.6223 13.6641 15.5353 14.7513C14.4482 15.8384 13.9047 17.1471 13.9047 18.6784C13.9047 20.209 14.4482 21.5179 15.5353 22.605C16.6223 23.6919 17.9312 24.2354 19.4622 24.2354C20.9929 24.2354 22.302 23.6919 23.389 22.605C24.4761 21.5179 25.0197 20.2091 25.0197 18.6784C25.0197 17.1472 24.4761 15.8385 23.389 14.7513C22.302 13.6642 20.9929 13.1206 19.4622 13.1206Z" fill="black"/>
</svg>
