<svg width="14" height="18" viewBox="0 0 14 18" fill="none" xmlns="http://www.w3.org/2000/svg">
<path d="M9.5625 1.125H8.34075C8.109 0.47025 7.4835 0 6.75 0C6.0165 0 5.391 0.47025 5.15813 1.125H3.9375C3.627 1.125 3.375 1.377 3.375 1.6875V3.9375C3.375 4.248 3.627 4.5 3.9375 4.5H9.5625C9.873 4.5 10.125 4.248 10.125 3.9375V1.6875C10.125 1.377 9.873 1.125 9.5625 1.125Z" fill="#171717"/>
<path d="M11.0779 11.25L9.5265 15.3855C9.44438 15.6049 9.234 15.75 9 15.75C8.99212 15.75 8.98425 15.75 8.97638 15.75C8.7345 15.7399 8.52525 15.5756 8.45887 15.3427L6.66113 9.04837L5.022 13.1456C4.94663 13.3346 4.7745 13.4674 4.57312 13.4955C4.37063 13.5225 4.1715 13.437 4.05 13.275L2.53125 11.25H0V16.875C0 17.5061 0.493875 18 1.125 18H12.375C13.0061 18 13.5 17.5061 13.5 16.875V11.25H11.0779Z" fill="#171717"/>
<path d="M12.375 2.25H11.25V3.9375C11.25 4.86788 10.4929 5.625 9.5625 5.625H3.9375C3.00712 5.625 2.25 4.86788 2.25 3.9375V2.25H1.125C0.505125 2.25 0 2.75512 0 3.375V10.125H2.8125C2.98913 10.125 3.15675 10.2082 3.2625 10.35L4.34925 11.799L6.22687 7.10325C6.31687 6.8805 6.54412 6.7365 6.77812 6.75C7.01887 6.76237 7.22362 6.92662 7.29112 7.15725L9.072 13.392L10.161 10.4895C10.2431 10.2701 10.4535 10.125 10.6875 10.125H13.5V3.375C13.5 2.74388 13.0061 2.25 12.375 2.25Z" fill="#171717"/>
</svg>
