<svg viewBox="0 0 110 48" fill="none" xmlns="http://www.w3.org/2000/svg">
	<path fill-rule="evenodd" clip-rule="evenodd" d="M0.00531698 5.20358C0.00531698 3.55583 0.00962688 1.90799 2.04803e-05 0.260289C-0.00122576 0.0505478 0.054024 -0.00349477 0.269882 0.000171687C1.05657 0.0135317 1.84372 0.0106688 2.63072 0.00147755C2.81039 -0.000581695 2.86231 0.0463289 2.86231 0.223323C2.8566 3.56071 2.8566 6.89809 2.86231 10.2354C2.86231 10.4133 2.80883 10.4587 2.62968 10.4567C1.83438 10.4478 1.0386 10.4463 0.243192 10.4576C0.0480525 10.4603 -0.000187226 10.4096 0.000695525 10.2222C0.00864028 8.54935 0.00531698 6.87644 0.00531698 5.20358Z" transform="translate(58.1013 15.7598)" fill="white"/><path fill-rule="evenodd" clip-rule="evenodd" d="M0 1.72113C0.0373351 1.02877 0.369353 0.461723 1.08225 0.163384C1.8289 -0.149018 2.52466 -0.00150611 3.13199 0.504114C3.28097 0.62812 3.34463 0.666191 3.51002 0.514309C4.15837 -0.0812139 5.12888 -0.154794 5.85377 0.308837C6.56724 0.764985 6.83206 1.63876 6.51323 2.48938C6.28995 3.08605 5.86935 3.55174 5.42797 4.00217C4.79655 4.64686 4.0675 5.19191 3.42642 5.82706C3.36177 5.8911 3.3141 5.91415 3.23668 5.83771C2.38971 5.00211 1.39926 4.30688 0.656661 3.36902C0.281701 2.89555 0.00981409 2.38305 0 1.72113Z" transform="translate(56.1936 8.12793)" fill="white"/><path fill-rule="evenodd" clip-rule="evenodd" d="M2.62462 1.67138C3.50917 0.659425 4.53838 0.0345878 5.8818 0.00732293C7.24129 -0.0202427 8.31613 0.471177 9.01351 1.65314C9.50297 1.10388 10.0391 0.641382 10.7111 0.339013C12.0877 -0.280262 13.9231 -0.0298657 14.8943 0.916638C15.5066 1.51361 15.7503 2.25658 15.7835 3.07137C15.8851 5.5424 15.8032 8.01478 15.8338 10.4864C15.8359 10.6675 15.7602 10.6859 15.6067 10.6848C14.803 10.6793 13.9993 10.6758 13.1962 10.6869C13.0012 10.6897 12.9764 10.6194 12.9769 10.4567C12.981 8.49408 12.98 6.5314 12.9764 4.56873C12.9753 4.17635 12.9499 3.78487 12.8913 3.39564C12.7347 2.35626 11.9492 1.87838 10.9091 2.20084C10.0007 2.48252 9.60667 3.15682 9.46097 4.01115C9.35986 4.60647 9.35208 5.20735 9.35312 5.80898C9.35571 7.34569 9.34794 8.8825 9.3609 10.4192C9.36245 10.6495 9.29246 10.691 9.07365 10.6873C8.29591 10.6745 7.51817 10.6754 6.74095 10.6871C6.54548 10.6901 6.49881 10.6398 6.49985 10.453C6.50711 8.55718 6.50451 6.66131 6.50399 4.7654C6.50399 4.27268 6.48637 3.78086 6.41481 3.29194C6.27275 2.32208 5.58782 2.00723 4.70638 2.13639C3.75598 2.27562 3.15556 2.88532 2.97927 3.82235C2.85794 4.46699 2.85535 5.11814 2.8538 5.76904C2.84965 7.32244 2.84809 8.87593 2.85794 10.4293C2.8595 10.6429 2.79469 10.6905 2.58418 10.6871C1.80644 10.6749 1.0287 10.6773 0.251473 10.686C0.0699996 10.688 -0.000515658 10.6588 2.83653e-06 10.459C0.00726176 7.13494 0.00674326 3.81088 0.000521331 0.486814C2.83651e-06 0.298065 0.0508153 0.249299 0.244214 0.252406C0.961291 0.263934 1.67837 0.26248 2.39545 0.253058C2.57173 0.250702 2.63655 0.287289 2.62929 0.470075C2.61373 0.845218 2.62462 1.22136 2.62462 1.67138Z" transform="translate(63.1467 15.4922)" fill="white"/><path fill-rule="evenodd" clip-rule="evenodd" d="M6.20337 7.56897C6.05608 7.71975 6.03501 7.82488 6.14664 8.01039C7.37356 10.0491 8.5899 12.0937 9.80851 14.137C9.85029 14.2071 9.88626 14.2803 9.94376 14.3871C9.52686 14.3871 9.1422 14.3871 8.75758 14.3871C8.2127 14.3871 7.66772 14.3805 7.12305 14.3909C6.94847 14.3942 6.84991 14.3466 6.76189 14.1924C5.95389 12.777 5.13562 11.3671 4.32061 9.95545C4.17395 9.70139 4.17577 9.70214 3.96885 9.91341C3.64791 10.241 3.32915 10.5707 3.00095 10.8914C2.8956 10.9943 2.85237 11.099 2.85325 11.2438C2.85901 12.2041 2.85003 13.1645 2.86114 14.1247C2.86347 14.3256 2.82118 14.3963 2.59729 14.3924C1.81051 14.3787 1.02322 14.3824 0.236292 14.3907C0.0643021 14.3925 -0.000207093 14.3621 4.99243e-07 14.1766C0.00565738 9.52526 0.00544979 4.87387 0.000467581 0.222539C0.000259989 0.0478065 0.0461897 -0.00145134 0.228819 0.000853712C1.0157 0.0107253 1.80294 0.0125293 2.58976 0.000152176C2.80311 -0.00325528 2.86212 0.0495604 2.86134 0.259871C2.85314 2.59804 2.85615 4.93626 2.85615 7.27448C2.85615 7.36433 2.85615 7.45417 2.85615 7.62089C3.67386 6.72177 4.43733 5.88218 5.20101 5.04279C5.49205 4.72289 5.78481 4.4045 6.07419 4.08319C6.13891 4.01133 6.20056 3.96087 6.31163 3.96133C7.41783 3.96538 8.52404 3.96378 9.6319 3.96378" transform="translate(46.9426 11.79)" fill="white"/><path fill-rule="evenodd" clip-rule="evenodd" d="M9.22888 10.8489C8.97013 11.5944 8.32894 11.8889 7.56391 11.9565C6.83154 12.0213 6.0961 12.0126 5.56453 12.0094C4.65249 12.0094 3.94354 12.0028 3.2349 12.0138C3.04875 12.0167 3.00762 11.9619 3.00881 11.7895C3.01676 10.6441 3.01567 9.49856 3.0097 8.35312C3.00887 8.19782 3.03981 8.13609 3.21891 8.13875C4.52361 8.15809 5.82967 8.10269 7.13302 8.19491C7.73132 8.2372 8.32894 8.30992 8.78766 8.74071C9.42807 9.34211 9.49422 10.0843 9.22888 10.8489ZM3.23427 2.41218C3.89976 2.41846 4.5654 2.41489 5.35531 2.41489C5.87052 2.41846 6.50994 2.4175 7.149 2.45562C8.20228 2.51841 8.81013 3.08741 8.81667 4.02899C8.82311 4.95469 8.14962 5.61285 7.13436 5.67975C5.82176 5.76624 4.5075 5.71189 3.19423 5.73213C3.04053 5.73449 3.00942 5.68176 3.0102 5.54519C3.01545 4.567 3.0182 3.58876 3.00833 2.61062C3.00652 2.43046 3.08004 2.41072 3.23427 2.41218ZM11.6708 7.98656C11.1701 7.36522 10.4818 7.00511 9.67992 6.76267C9.74717 6.72033 9.77412 6.70084 9.80335 6.68527C11.1544 5.96639 11.8794 4.67424 11.7219 3.26527C11.5638 1.85122 10.5063 0.656203 9.05265 0.252993C8.24514 0.0289877 7.41214 0.0142214 6.58334 0.00904813C4.47185 -0.0042114 2.36021 0.00658708 0.248625 7.54521e-06C0.0615856 -0.000595161 -0.000258819 0.0345627 8.13489e-07 0.230593C0.00628391 4.88464 0.00628391 9.53868 8.13489e-07 14.1927C-0.000258819 14.389 0.0621049 14.424 0.248884 14.4233C2.10946 14.4157 3.97009 14.4219 5.83067 14.4146C6.76498 14.411 7.70007 14.4014 8.63153 14.3219C10.3093 14.1785 11.5089 13.368 12.1304 11.8495C12.6832 10.4989 12.632 9.17942 11.6708 7.98656Z" transform="translate(8.26953 11.7949)" fill="white"/><path fill-rule="evenodd" clip-rule="evenodd" d="M7.31179 11.1916C6.73696 12.3842 5.38583 12.8568 4.26265 12.2526C3.75845 11.9816 3.39132 11.5716 3.22101 11.0477C2.82948 9.84132 2.77028 8.60904 3.16752 7.39674C3.56839 6.17325 4.80321 5.55312 5.99545 5.93563C6.85691 6.21228 7.30088 6.85486 7.51326 7.67032C7.64464 8.17524 7.69033 8.69141 7.67787 9.14017C7.68514 9.89425 7.61452 10.5635 7.31179 11.1916ZM10.5316 0.208089C10.5316 0.0422952 10.4838 -0.000396491 10.3156 0.00141163C9.5284 0.00969883 8.74067 0.0126119 7.95347 0.000206215C7.73642 -0.00325934 7.66372 0.0349622 7.66528 0.267305C7.67878 1.79049 7.67203 3.31378 7.67203 4.83702C7.67203 4.92517 7.67203 5.01331 7.67203 5.09734C7.6388 5.10176 7.62789 5.10643 7.62426 5.10326C7.56818 5.05113 7.51262 4.99875 7.45809 4.9451C6.99751 4.49147 6.47097 4.12934 5.84422 3.92884C3.76249 3.2632 1.28768 4.17178 0.409086 6.58075C-0.0130758 7.73915 -0.0650022 8.93908 0.0585826 10.1473C0.161397 11.1495 0.459454 12.0918 1.08205 12.9201C2.7006 15.0747 5.64171 15.2724 7.49704 13.3477C7.61855 13.222 7.72811 13.086 7.87922 12.9139C7.87922 13.3704 7.88701 13.7768 7.87506 14.1826C7.86987 14.356 7.89687 14.4301 8.10769 14.426C8.84297 14.4114 9.57877 14.4157 10.314 14.4238C10.4792 14.4256 10.5316 14.3873 10.5316 14.2187C10.5269 9.54847 10.5269 4.8783 10.5316 0.208089Z" transform="translate(91.676 11.793)" fill="white"/><path fill-rule="evenodd" clip-rule="evenodd" d="M7.87627 7.17572C7.43267 8.11423 6.69464 8.67339 5.60563 8.68841C4.49628 8.70363 3.7004 8.17063 3.26739 7.2046C2.78395 6.12605 2.79854 5.00131 3.20035 3.90197C3.58907 2.83845 4.56955 2.22534 5.69952 2.26768C6.75321 2.30721 7.66358 3.03252 8.00313 4.10202C8.14655 4.5538 8.1817 5.01929 8.19474 5.45273C8.17719 6.06619 8.12874 6.64162 7.87627 7.17572ZM10.344 2.52806C9.34245 0.949776 7.86577 0.121006 5.96469 0.0131213C4.46386 -0.0720109 3.06735 0.249131 1.90285 1.2108C0.575189 2.30717 0.0470454 3.76426 0 5.41281C0.00207706 5.82697 0.0427355 6.23475 0.112057 6.63947C0.394849 8.29028 1.22271 9.57258 2.80798 10.332C3.50311 10.665 4.24047 10.8702 5.01475 10.93C6.37371 11.0351 7.65365 10.8026 8.78035 10.0205C10.2698 8.98675 11.0231 7.55779 11.1154 5.8006C11.1763 4.64351 10.9808 3.53157 10.344 2.52806Z" transform="translate(22.074 15.5098)" fill="white"/><path fill-rule="evenodd" clip-rule="evenodd" d="M7.87166 7.18873C7.42307 8.12599 6.68093 8.67872 5.59219 8.68816C4.49431 8.69771 3.70596 8.16913 3.27383 7.21349C2.78634 6.1354 2.80104 5.01091 3.1977 3.91097C3.58762 2.82966 4.60123 2.20436 5.74241 2.26925C6.83858 2.33158 7.75799 3.12429 8.05231 4.26004C8.15586 4.65968 8.18332 5.06756 8.19677 5.44701C8.17901 6.06388 8.13072 6.64745 7.87166 7.18873ZM10.344 2.52806C9.34245 0.949826 7.86582 0.121006 5.96469 0.0131213C4.46386 -0.0720109 3.06735 0.249131 1.90285 1.2108C0.575189 2.30717 0.0470454 3.76426 0 5.41281C0.00207706 5.82697 0.0427355 6.23475 0.112057 6.63947C0.394849 8.29028 1.22266 9.57258 2.80798 10.332C3.50311 10.665 4.24047 10.8702 5.01475 10.93C6.37371 11.0351 7.65365 10.8026 8.78035 10.0205C10.2698 8.98675 11.0231 7.55779 11.1154 5.80065C11.1763 4.64351 10.9808 3.53162 10.344 2.52806Z" transform="translate(34.2251 15.5098)" fill="white"/><path fill-rule="evenodd" clip-rule="evenodd" d="M5.11314 2.11821C6.20048 2.11153 7.05155 2.88043 7.20058 3.99699C7.2712 4.52777 7.2712 4.52777 6.73065 4.52777C6.19477 4.52777 5.65889 4.52777 5.123 4.52777C4.47496 4.52777 3.8264 4.52777 3.17836 4.52772C3.08489 4.52772 2.99194 4.54912 2.99194 4.399C2.99246 3.13351 3.82692 2.12604 5.11314 2.11821ZM3.1817 6.23122C4.28878 6.2394 5.39637 6.23524 6.50344 6.23524C7.61934 6.23524 8.73524 6.22986 9.85114 6.24016C10.0537 6.24202 10.0942 6.18225 10.0869 5.99923C10.064 5.41425 10.0531 4.82897 9.95084 4.24997C9.77377 3.24762 9.44923 2.3057 8.73939 1.52579C7.89663 0.599234 6.81396 0.14836 5.56149 0.0285725C3.2248 -0.195082 1.39024 0.91013 0.553707 2.78721C-0.0948547 4.24184 -0.128088 5.76337 0.218781 7.28701C0.505415 8.54706 1.15813 9.59924 2.33842 10.2795C3.35618 10.8661 4.4809 11.0074 5.63575 10.947C7.64634 10.8421 9.07068 9.91219 9.84179 8.0873C9.92851 7.88183 9.88177 7.8207 9.66213 7.78951C8.87648 7.67796 8.09239 7.55672 7.31038 7.42146C7.13798 7.39163 7.07723 7.41805 7.01647 7.58012C6.58444 8.73606 5.43012 9.18528 4.29085 8.6339C3.37331 8.18976 3.04098 7.39369 2.9444 6.46225C2.92363 6.26251 2.99425 6.22986 3.1817 6.23122Z" transform="translate(80.4651 15.5068)" fill="white"/><path d="M5.61377 5.94709C5.61377 6.91957 5.38242 7.70307 4.91973 8.29758C4.45703 8.8921 3.83055 9.18935 3.04028 9.18935C2.23363 9.18935 1.59896 8.94328 1.13627 8.45113V11.528H0V2.68121H1.038L1.09327 3.3899C1.55597 2.8387 2.19883 2.5631 3.02186 2.5631C3.82031 2.5631 4.45089 2.85248 4.91359 3.43124C5.38038 4.01001 5.61377 4.81516 5.61377 5.8467V5.94709ZM4.47751 5.82307C4.47751 5.10257 4.31781 4.53365 3.99843 4.11631C3.67905 3.69897 3.24092 3.4903 2.68405 3.4903C1.99614 3.4903 1.48022 3.78362 1.13627 4.37026V7.42353C1.47612 8.00623 1.99614 8.29758 2.69633 8.29758C3.24092 8.29758 3.67291 8.09088 3.99229 7.67748C4.31577 7.26014 4.47751 6.642 4.47751 5.82307Z" transform="translate(8.19995 29.8037)" fill="white"/><path d="M11.1661 9.07124C11.1006 8.94525 11.0474 8.72083 11.0064 8.39798C10.4782 8.92556 9.84765 9.18935 9.1147 9.18935C8.45956 9.18935 7.92111 9.01218 7.49936 8.65783C7.08171 8.29955 6.87288 7.84678 6.87288 7.29951C6.87288 6.63413 7.13494 6.11836 7.65905 5.7522C8.18726 5.38211 8.9284 5.19706 9.88245 5.19706H10.988V4.69507C10.988 4.31317 10.8693 4.01001 10.6318 3.78559C10.3943 3.55723 10.0442 3.44305 9.58149 3.44305C9.17612 3.44305 8.83627 3.54148 8.56192 3.73834C8.28758 3.9352 8.15041 4.1734 8.15041 4.45294H7.008C7.008 4.13403 7.1247 3.82693 7.3581 3.53164C7.59559 3.23242 7.91497 2.99619 8.31625 2.82295C8.72162 2.64971 9.16589 2.5631 9.64906 2.5631C10.4148 2.5631 11.0146 2.74814 11.4487 3.11824C11.8827 3.48439 12.1079 3.99032 12.1243 4.63602V7.57708C12.1243 8.16372 12.2021 8.63027 12.3577 8.97674V9.07124H11.1661ZM9.28054 8.23853C9.63677 8.23853 9.97458 8.14994 10.294 7.97277C10.6133 7.79559 10.8447 7.56527 10.988 7.28179V5.97072H10.0974C8.70524 5.97072 8.00915 6.36246 8.00915 7.14596C8.00915 7.48849 8.12789 7.75622 8.36538 7.94914C8.60287 8.14207 8.90792 8.23853 9.28054 8.23853Z" transform="translate(8.19995 29.8037)" fill="white"/><path d="M17.1177 3.66157C16.9457 3.63401 16.7594 3.62023 16.5588 3.62023C15.8136 3.62023 15.3079 3.92536 15.0417 4.53562V9.07124H13.9054V2.68121H15.011L15.0294 3.41943C15.402 2.84854 15.9303 2.5631 16.6141 2.5631C16.8352 2.5631 17.0031 2.59066 17.1177 2.64578V3.66157Z" transform="translate(8.19995 29.8037)" fill="white"/><path d="M20.0167 1.1339V2.68121H21.2574V3.52573H20.0167V7.48849C20.0167 7.74441 20.072 7.93733 20.1826 8.06726C20.2931 8.19325 20.4815 8.25624 20.7476 8.25624C20.8786 8.25624 21.0588 8.23262 21.2881 8.18537V9.07124C20.9892 9.14998 20.6985 9.18935 20.416 9.18935C19.9082 9.18935 19.5254 9.04171 19.2674 8.74642C19.0094 8.45113 18.8805 8.03182 18.8805 7.48849V3.52573H17.6705V2.68121H18.8805V1.1339H20.0167Z" transform="translate(8.19995 29.8037)" fill="white"/><path d="M23.6651 2.68121L23.7019 3.48439C24.2097 2.8702 24.873 2.5631 25.6919 2.5631C27.0964 2.5631 27.8048 3.32494 27.817 4.84862V9.07124H26.6808V4.84272C26.6767 4.38207 26.5661 4.0415 26.3491 3.82102C26.1362 3.60054 25.8025 3.4903 25.348 3.4903C24.9794 3.4903 24.656 3.58479 24.3775 3.77378C24.0991 3.96276 23.8821 4.2108 23.7265 4.5179V9.07124H22.5902V2.68121H23.6651Z" transform="translate(8.19995 29.8037)" fill="white"/><path d="M32.2884 9.18935C31.3876 9.18935 30.6546 8.90588 30.0896 8.33892C29.5245 7.76803 29.242 7.00619 29.242 6.0534V5.8526C29.242 5.21872 29.3669 4.65373 29.6166 4.15765C29.8705 3.65763 30.2227 3.26785 30.6731 2.98831C31.1276 2.70483 31.6189 2.5631 32.1471 2.5631C33.0111 2.5631 33.6826 2.83673 34.1617 3.384C34.6408 3.93126 34.8803 4.71476 34.8803 5.73449V6.18923H30.3782C30.3946 6.81918 30.585 7.32904 30.9495 7.71882C31.318 8.10466 31.7848 8.29758 32.3498 8.29758C32.7511 8.29758 33.091 8.21884 33.3694 8.06135C33.6478 7.90387 33.8915 7.6952 34.1003 7.43534L34.7943 7.95505C34.2375 8.77792 33.4021 9.18935 32.2884 9.18935ZM32.1471 3.46077C31.6885 3.46077 31.3036 3.6222 30.9924 3.94504C30.6813 4.26395 30.4888 4.71279 30.4151 5.29155H33.7441V5.20887C33.7113 4.65373 33.5557 4.22458 33.2773 3.92142C32.9988 3.61432 32.6221 3.46077 32.1471 3.46077Z" transform="translate(8.19995 29.8037)" fill="white"/><path d="M39.4131 3.66157C39.2411 3.63401 39.0548 3.62023 38.8542 3.62023C38.109 3.62023 37.6033 3.92536 37.3371 4.53562V9.07124H36.2008V2.68121H37.3064L37.3248 3.41943C37.6974 2.84854 38.2257 2.5631 38.9095 2.5631C39.1306 2.5631 39.2985 2.59066 39.4131 2.64578V3.66157Z" transform="translate(8.19995 29.8037)" fill="white"/><path d="M42.5148 1.73629H41.5382L39.9536 0H41.3233L42.5148 1.73629Z" transform="translate(8.19995 29.8037)" fill="white"/><path d="M48.2268 7.37629C48.2268 7.081 48.1102 6.85264 47.8768 6.69122C47.6475 6.52586 47.2441 6.38412 46.6668 6.266C46.0935 6.14789 45.637 6.00615 45.2971 5.84079C44.9614 5.67543 44.7116 5.47857 44.5478 5.25021C44.3881 5.02186 44.3083 4.75019 44.3083 4.43522C44.3083 3.91158 44.5376 3.46865 44.9962 3.10643C45.4589 2.74421 46.0485 2.5631 46.7651 2.5631C47.5185 2.5631 48.1286 2.75011 48.5954 3.12414C49.0663 3.49817 49.3017 3.97654 49.3017 4.55924H48.1593C48.1593 4.26002 48.0262 4.00213 47.7601 3.78559C47.498 3.56904 47.1663 3.46077 46.7651 3.46077C46.3515 3.46077 46.028 3.54739 45.7946 3.72062C45.5612 3.89386 45.4445 4.12025 45.4445 4.39979C45.4445 4.66358 45.553 4.8624 45.7701 4.99627C45.9871 5.13013 46.3781 5.25809 46.9432 5.38014C47.5123 5.50219 47.973 5.64787 48.3251 5.81717C48.6773 5.98646 48.9373 6.1912 49.1052 6.43137C49.2771 6.6676 49.3631 6.95698 49.3631 7.29951C49.3631 7.8704 49.1256 8.32908 48.6506 8.67555C48.1757 9.01809 47.5594 9.18935 46.8019 9.18935C46.2696 9.18935 45.7987 9.0988 45.3893 8.91769C44.9798 8.73658 44.6584 8.4846 44.425 8.16175C44.1957 7.83497 44.081 7.48259 44.081 7.10462H45.2173C45.2378 7.47078 45.3893 7.76213 45.6718 7.97867C45.9584 8.19128 46.3351 8.29758 46.8019 8.29758C47.2318 8.29758 47.5758 8.2149 47.8338 8.04954C48.0958 7.88024 48.2268 7.65582 48.2268 7.37629Z" transform="translate(8.19995 29.8037)" fill="white"/><path d="M56.6291 8.29758C57.0345 8.29758 57.3886 8.17947 57.6916 7.94324C57.9947 7.70701 58.1625 7.41172 58.1953 7.05737H59.2701C59.2497 7.42353 59.1186 7.77197 58.877 8.10269C58.6355 8.43342 58.312 8.69721 57.9066 8.89406C57.5053 9.09092 57.0795 9.18935 56.6291 9.18935C55.7242 9.18935 55.0035 8.89997 54.4671 8.32121C53.9348 7.73851 53.6686 6.9432 53.6686 5.93528V5.7522C53.6686 5.13013 53.7874 4.57696 54.0249 4.09269C54.2624 3.60842 54.6022 3.23242 55.0445 2.96469C55.4908 2.69696 56.0169 2.5631 56.6229 2.5631C57.3682 2.5631 57.9865 2.77767 58.4778 3.20682C58.9733 3.63598 59.2374 4.19308 59.2701 4.87815H58.1953C58.1625 4.46475 57.9987 4.12615 57.7039 3.86236C57.4132 3.59464 57.0529 3.46077 56.6229 3.46077C56.0456 3.46077 55.5972 3.66157 55.2778 4.06316C54.9626 4.46081 54.8049 5.03761 54.8049 5.79354V6.00025C54.8049 6.7365 54.9626 7.30345 55.2778 7.7011C55.5931 8.09876 56.0435 8.29758 56.6291 8.29758Z" transform="translate(8.19995 29.8037)" fill="white"/><path d="M64.6505 9.07124C64.585 8.94525 64.5318 8.72083 64.4908 8.39798C63.9626 8.92556 63.332 9.18935 62.5991 9.18935C61.9439 9.18935 61.4055 9.01218 60.9837 8.65783C60.5661 8.29955 60.3573 7.84678 60.3573 7.29951C60.3573 6.63413 60.6193 6.11836 61.1434 5.7522C61.6716 5.38211 62.4128 5.19706 63.3668 5.19706H64.4724V4.69507C64.4724 4.31317 64.3537 4.01001 64.1162 3.78559C63.8787 3.55723 63.5286 3.44305 63.0659 3.44305C62.6605 3.44305 62.3207 3.54148 62.0463 3.73834C61.772 3.9352 61.6348 4.1734 61.6348 4.45294H60.4924C60.4924 4.13403 60.6091 3.82693 60.8425 3.53164C61.08 3.23242 61.3994 2.99619 61.8006 2.82295C62.206 2.64971 62.6503 2.5631 63.1334 2.5631C63.8991 2.5631 64.499 2.74814 64.933 3.11824C65.3671 3.48439 65.5923 3.99032 65.6087 4.63602V7.57708C65.6087 8.16372 65.6865 8.63027 65.8421 8.97674V9.07124H64.6505ZM62.7649 8.23853C63.1212 8.23853 63.459 8.14994 63.7784 7.97277C64.0977 7.79559 64.3291 7.56527 64.4724 7.28179V5.97072H63.5818C62.1896 5.97072 61.4935 6.36246 61.4935 7.14596C61.4935 7.48849 61.6123 7.75622 61.8498 7.94914C62.0873 8.14207 62.3923 8.23853 62.7649 8.23853Z" transform="translate(8.19995 29.8037)" fill="white"/><path d="M73.0159 5.94709C73.0159 6.92351 72.7825 7.70898 72.3157 8.30349C71.8489 8.89406 71.2224 9.18935 70.4363 9.18935C69.5969 9.18935 68.9479 8.90391 68.4893 8.33302L68.434 9.07124H67.3898V0H68.5261V3.384C68.9847 2.83673 69.6173 2.5631 70.424 2.5631C71.2306 2.5631 71.8633 2.85642 72.3218 3.44305C72.7845 4.02969 73.0159 4.83287 73.0159 5.8526V5.94709ZM71.8796 5.82307C71.8796 5.07895 71.7302 4.50412 71.4313 4.09859C71.1324 3.69306 70.7024 3.4903 70.1414 3.4903C69.3921 3.4903 68.8537 3.82496 68.5261 4.49428V7.25817C68.8742 7.92749 69.4167 8.26215 70.1537 8.26215C70.6983 8.26215 71.1221 8.05938 71.4251 7.65386C71.7281 7.24833 71.8796 6.63807 71.8796 5.82307Z" transform="translate(8.19995 29.8037)" fill="white"/><path d="M75.6877 9.07124H74.5514V2.68121H75.6877V9.07124ZM74.4593 0.986261C74.4593 0.809088 74.5145 0.659476 74.6251 0.537424C74.7397 0.415371 74.9076 0.354345 75.1287 0.354345C75.3498 0.354345 75.5177 0.415371 75.6324 0.537424C75.747 0.659476 75.8044 0.809088 75.8044 0.986261C75.8044 1.16343 75.747 1.31108 75.6324 1.42919C75.5177 1.54731 75.3498 1.60636 75.1287 1.60636C74.9076 1.60636 74.7397 1.54731 74.6251 1.42919C74.5145 1.31108 74.4593 1.16343 74.4593 0.986261Z" transform="translate(8.19995 29.8037)" fill="white"/><path d="M78.5867 2.68121L78.6235 3.48439C79.1313 2.8702 79.7946 2.5631 80.6135 2.5631C82.018 2.5631 82.7264 3.32494 82.7387 4.84862V9.07124H81.6024V4.84272C81.5983 4.38207 81.4877 4.0415 81.2707 3.82102C81.0578 3.60054 80.7241 3.4903 80.2696 3.4903C79.9011 3.4903 79.5776 3.58479 79.2991 3.77378C79.0207 3.96276 78.8037 4.2108 78.6481 4.5179V9.07124H77.5118V2.68121H78.5867Z" transform="translate(8.19995 29.8037)" fill="white"/><path d="M87.21 9.18935C86.3092 9.18935 85.5762 8.90588 85.0112 8.33892C84.4461 7.76803 84.1636 7.00619 84.1636 6.0534V5.8526C84.1636 5.21872 84.2885 4.65373 84.5383 4.15765C84.7921 3.65763 85.1443 3.26785 85.5947 2.98831C86.0492 2.70483 86.5405 2.5631 87.0687 2.5631C87.9327 2.5631 88.6042 2.83673 89.0833 3.384C89.5624 3.93126 89.8019 4.71476 89.8019 5.73449V6.18923H85.2999C85.3162 6.81918 85.5066 7.32904 85.8711 7.71882C86.2396 8.10466 86.7064 8.29758 87.2714 8.29758C87.6727 8.29758 88.0126 8.21884 88.291 8.06135C88.5694 7.90387 88.8131 7.6952 89.0219 7.43534L89.7159 7.95505C89.1591 8.77792 88.3238 9.18935 87.21 9.18935ZM87.0687 3.46077C86.6101 3.46077 86.2253 3.6222 85.9141 3.94504C85.6029 4.26395 85.4104 4.71279 85.3367 5.29155H88.6657V5.20887C88.6329 4.65373 88.4773 4.22458 88.1989 3.92142C87.9204 3.61432 87.5437 3.46077 87.0687 3.46077Z" transform="translate(8.19995 29.8037)" fill="white"/><path d="M92.6641 1.1339V2.68121H93.9048V3.52573H92.6641V7.48849C92.6641 7.74441 92.7194 7.93733 92.8299 8.06726C92.9405 8.19325 93.1288 8.25624 93.395 8.25624C93.526 8.25624 93.7062 8.23262 93.9355 8.18537V9.07124C93.6366 9.14998 93.3459 9.18935 93.0633 9.18935C92.5556 9.18935 92.1727 9.04171 91.9148 8.74642C91.6568 8.45113 91.5278 8.03182 91.5278 7.48849V3.52573H90.3179V2.68121H91.5278V1.1339H92.6641Z" transform="translate(8.19995 29.8037)" fill="white"/>
</svg>